PathFileType	4	(X/Y/Z)	C:\Users\WrightLab\Desktop\Jo\P3_21.trc
DataRate	CameraRate	NumFrames	NumMarkers	Units	OrigDataRate	OrigDataStartFrame	OrigNumFrames
100.00	100.00	       7	19	mm	100.00	384	       614
Frame#	Time	Headset_Front			Headset_Back			Headset_Left			Headset_Right			Left_Shoulder			Right_Shoulder			Sternum			C7			Left Elbow			Right Elbow			Left Wrist			Right Wrist			Left ASIS			Right ASIS			S2			Left Knee			Right Knee			Left Ankle			Right Ankle			
		X1	Y1	Z1	X2	Y2	Z2	X3	Y3	Z3	X4	Y4	Z4	X5	Y5	Z5	X6	Y6	Z6	X7	Y7	Z7	X8	Y8	Z8	X9	Y9	Z9	X10	Y10	Z10	X11	Y11	Z11	X12	Y12	Z12	X13	Y13	Z13	X14	Y14	Z14	X15	Y15	Z15	X16	Y16	Z16	X17	Y17	Z17	X18	Y18	Z18	X19	Y19	Z19	

384	3.830	-730.32477	1423.29578	-713.12152				-870.24487	1528.94568	-596.83948				-973.00317	1319.66016	-468.21405	-612.65070	1322.81104	-447.36227	-790.35114	1196.21814	-577.86810	-791.14929	1379.79309	-413.18011	-1031.53357	983.97791	-440.32758	-511.46130	981.35004	-446.27057	-1029.23840	804.19769	-545.55603	-507.68777	831.40814	-620.48712	-889.19104	845.77844	-548.04260				-795.57361	925.94598	-327.04459	-901.61328	458.33719	-655.16248	-693.81061	418.03400	-424.10703	-917.14215	147.76041	-525.43231	-742.57623	96.13017	-338.16525	
385	3.840	-730.24329	1422.69238	-721.26044				-870.46466	1528.37109	-604.89508				-972.90509	1318.55286	-477.81754	-613.33875	1322.23291	-454.87357	-790.03076	1195.20032	-585.98285	-792.20856	1378.69800	-422.32297	-1032.62695	982.98077	-449.64175	-510.82278	980.82208	-455.03320	-1032.74719	805.30817	-557.44336	-508.33301	832.78430	-629.74207	-889.60291	845.80750	-556.46906				-797.00867	926.32117	-333.54187	-899.90961	458.08188	-664.29980	-694.37708	417.66684	-428.62415	-916.23328	140.77853	-554.41138	-742.44891	96.58672	-338.98584	
386	3.850	-729.98987	1422.28564	-729.63727				-870.62177	1527.68970	-613.36023				-973.15875	1317.57458	-486.72079	-613.75580	1321.79431	-462.00995	-789.76770	1193.86365	-593.83191	-791.52856	1377.03381	-429.79745	-1035.67773	983.55035	-460.64029	-510.53778	980.92218	-463.20804	-1033.47986	804.10388	-567.13715	-507.72345	833.22308	-639.42847	-889.02478	845.00043	-564.96252				-797.42517	926.00934	-342.32031	-898.70831	457.22775	-672.49677	-694.28894	416.89548	-433.54111	-915.50842	133.49648	-581.93658	-743.03247	96.73304	-339.62073	
387	3.860	-729.79205	1421.76685	-737.82239				-870.65820	1527.32080	-622.52148				-973.16467	1316.99609	-496.41437	-614.09924	1320.74976	-469.20792	-789.24341	1192.85632	-602.11322	-792.70734	1376.74268	-438.37067	-1037.24780	983.03833	-469.93274	-511.02344	980.43542	-470.58414	-1036.77600	805.07690	-578.71875	-508.09793	833.45032	-647.70874	-888.84540	845.35083	-573.37158				-799.29779	924.43372	-349.97729	-897.27795	456.95801	-681.08002	-694.49084	416.65759	-438.52603	-915.17273	126.29293	-615.66901	-743.45709	97.12805	-340.39920	
388	3.870	-729.66541	1420.91357	-745.92725				-871.37115	1526.33984	-630.46954				-973.81390	1316.00818	-505.80835	-614.33160	1320.34143	-476.79141	-788.63025	1191.97876	-610.33118	-793.42645	1376.51465	-447.17944	-1037.13416	981.98712	-479.13504	-511.45682	978.74744	-479.02176	-1037.32825	804.00000	-588.47388	-509.11127	833.49963	-656.86078	-888.42456	844.78333	-582.72894				-799.39435	923.95416	-357.93481	-896.29108	455.58337	-689.00525	-694.35907	416.51669	-442.60150	-913.42273	120.69858	-644.55054	-743.63654	97.60062	-341.89069	
389	3.880	-729.43512	1420.06006	-753.87878				-871.74231	1524.01868	-638.99011				-973.71674	1314.62134	-515.19525	-614.73541	1319.41113	-484.60352	-788.18213	1190.75720	-619.13336	-793.13776	1374.66797	-455.66602	-1039.68127	980.53802	-489.79248	-510.85165	978.08624	-486.08713	-1040.51917	804.46222	-599.97119	-509.37634	833.15991	-664.92279	-887.96625	843.73566	-591.65320				-801.03485	922.69220	-366.68362	-895.57117	453.07220	-695.24243	-694.82654	415.53540	-446.13745				-743.71643	98.04360	-342.83475	
390	3.890	-729.23151	1419.04944	-762.02588				-871.50543	1522.88074	-646.80676				-973.89655	1313.49280	-524.71912	-614.98212	1318.03638	-492.49860	-787.83508	1189.13147	-626.94611	-793.89862	1373.35657	-463.55685	-1041.65332	980.01379	-499.51913	-511.87018	976.71332	-494.27606	-1041.24731	802.68945	-609.51807	-509.96555	832.09064	-672.58514	-887.35535	842.59442	-601.16534				-801.65778	921.40857	-374.23203	-895.00073	450.96579	-702.74933	-694.49432	415.79309	-451.38882				-743.90125	98.51093	-343.01828	
